<svg width="104" height="21" viewBox="0 0 104 21" fill="none" xmlns="http://www.w3.org/2000/svg">
<path d="M9.54894 2.92803C9.8483 2.00672 11.1517 2.00672 11.4511 2.92803L12.6329 6.56531C12.7668 6.97734 13.1507 7.2563 13.5839 7.2563H17.4084C18.3771 7.2563 18.7799 8.49591 17.9962 9.06531L14.9021 11.3133C14.5516 11.5679 14.405 12.0193 14.5389 12.4313L15.7207 16.0686C16.02 16.9899 14.9656 17.756 14.1818 17.1866L11.0878 14.9387C10.7373 14.684 10.2627 14.684 9.91222 14.9387L6.81815 17.1866C6.03444 17.756 4.97996 16.9899 5.27931 16.0686L6.46114 12.4313C6.59501 12.0193 6.44835 11.5679 6.09787 11.3133L3.00381 9.06532C2.22009 8.49591 2.62287 7.2563 3.59159 7.2563H7.41606C7.84929 7.2563 8.23324 6.97734 8.36712 6.56532L9.54894 2.92803Z" fill="black"/>
<path d="M29.5489 2.92803C29.8483 2.00672 31.1517 2.00672 31.4511 2.92803L32.6329 6.56531C32.7668 6.97734 33.1507 7.2563 33.5839 7.2563H37.4084C38.3771 7.2563 38.7799 8.49591 37.9962 9.06531L34.9021 11.3133C34.5516 11.5679 34.405 12.0193 34.5389 12.4313L35.7207 16.0686C36.02 16.9899 34.9656 17.756 34.1818 17.1866L31.0878 14.9387C30.7373 14.684 30.2627 14.684 29.9122 14.9387L26.8182 17.1866C26.0344 17.756 24.98 16.9899 25.2793 16.0686L26.4611 12.4313C26.595 12.0193 26.4484 11.5679 26.0979 11.3133L23.0038 9.06532C22.2201 8.49591 22.6229 7.2563 23.5916 7.2563H27.4161C27.8493 7.2563 28.2332 6.97734 28.3671 6.56532L29.5489 2.92803Z" fill="black"/>
<path d="M50.5489 2.92803C50.8483 2.00672 52.1517 2.00672 52.4511 2.92803L53.6329 6.56531C53.7668 6.97734 54.1507 7.2563 54.5839 7.2563H58.4084C59.3771 7.2563 59.7799 8.49591 58.9962 9.06531L55.9021 11.3133C55.5516 11.5679 55.405 12.0193 55.5389 12.4313L56.7207 16.0686C57.02 16.9899 55.9656 17.756 55.1818 17.1866L52.0878 14.9387C51.7373 14.684 51.2627 14.684 50.9122 14.9387L47.8182 17.1866C47.0344 17.756 45.98 16.9899 46.2793 16.0686L47.4611 12.4313C47.595 12.0193 47.4484 11.5679 47.0979 11.3133L44.0038 9.06532C43.2201 8.49591 43.6229 7.2563 44.5916 7.2563H48.4161C48.8493 7.2563 49.2332 6.97734 49.3671 6.56532L50.5489 2.92803Z" fill="black"/>
<path d="M71.5489 2.92803C71.8483 2.00672 73.1517 2.00672 73.4511 2.92803L74.6329 6.56531C74.7668 6.97734 75.1507 7.2563 75.5839 7.2563H79.4084C80.3771 7.2563 80.7799 8.49591 79.9962 9.06531L76.9021 11.3133C76.5516 11.5679 76.405 12.0193 76.5389 12.4313L77.7207 16.0686C78.02 16.9899 76.9656 17.756 76.1818 17.1866L73.0878 14.9387C72.7373 14.684 72.2627 14.684 71.9122 14.9387L68.8182 17.1866C68.0344 17.756 66.98 16.9899 67.2793 16.0686L68.4611 12.4313C68.595 12.0193 68.4484 11.5679 68.0979 11.3133L65.0038 9.06532C64.2201 8.49591 64.6229 7.2563 65.5916 7.2563H69.4161C69.8493 7.2563 70.2332 6.97734 70.3671 6.56532L71.5489 2.92803Z" fill="black"/>
<path d="M92.5489 2.92803C92.8483 2.00672 94.1517 2.00672 94.4511 2.92803L95.6329 6.56531C95.7668 6.97734 96.1507 7.2563 96.5839 7.2563H100.408C101.377 7.2563 101.78 8.49591 100.996 9.06531L97.9021 11.3133C97.5516 11.5679 97.405 12.0193 97.5389 12.4313L98.7207 16.0686C99.02 16.9899 97.9656 17.756 97.1818 17.1866L94.0878 14.9387C93.7373 14.684 93.2627 14.684 92.9122 14.9387L89.8182 17.1866C89.0344 17.756 87.98 16.9899 88.2793 16.0686L89.4611 12.4313C89.595 12.0193 89.4484 11.5679 89.0979 11.3133L86.0038 9.06532C85.2201 8.49591 85.6229 7.2563 86.5916 7.2563H90.4161C90.8493 7.2563 91.2332 6.97734 91.3671 6.56532L92.5489 2.92803Z" fill="black"/>
</svg>
