<svg width="130" height="35" viewBox="0 0 130 35" fill="none" xmlns="http://www.w3.org/2000/svg">
<rect width="130" height="35" rx="17.5" fill="white" fill-opacity="0.1"/>
<path d="M46.072 22.144C47.656 22.144 49.064 21.632 50.008 20.864C50.952 20.096 51.56 19.248 51.864 18.368L50.072 17.552C49.768 18.368 49.24 19.04 48.504 19.552C47.784 20.048 46.984 20.304 46.12 20.304C44.968 20.304 43.96 19.872 43.112 19.024C42.264 18.16 41.848 17.056 41.848 15.712C41.848 14.352 42.28 13.264 43.128 12.416C43.976 11.568 44.984 11.136 46.12 11.136C48.088 11.136 49.4 12.256 50.024 13.872L51.8 13.056C51.528 12.16 50.92 11.312 50.024 10.56C49.128 9.792 47.736 9.296 46.152 9.296C44.408 9.296 42.92 9.92 41.656 11.152C40.392 12.384 39.768 13.92 39.768 15.776C39.768 17.744 40.536 19.424 41.736 20.496C42.936 21.536 44.472 22.144 46.072 22.144ZM58.5038 16.208C58.5038 16.688 58.2318 16.928 57.7038 16.928H56.6478C55.1438 16.928 53.0958 17.552 53.0958 19.536V19.632C53.0958 20.368 53.3678 20.976 53.9118 21.44C54.4557 21.904 55.1438 22.144 55.9758 22.144C57.1278 22.144 57.9598 21.712 58.4878 20.832V22H60.3598V16.56C60.3598 15.968 60.2638 15.456 60.0718 15.024C59.5438 13.856 58.4718 13.28 56.8718 13.28C55.1278 13.28 53.9118 14 53.2398 15.456L54.6957 16.288C55.1278 15.376 55.8478 14.928 56.8238 14.928C57.8958 14.928 58.5038 15.504 58.5038 16.208ZM58.4878 18.544C58.4878 19.824 57.6558 20.624 56.3598 20.624C55.5438 20.624 54.9998 20.16 54.9998 19.456C54.9998 19.088 55.1758 18.8 55.5118 18.592C55.8638 18.384 56.2478 18.272 56.6478 18.272H58.4878V18.544ZM67.4048 15.168V13.456H65.3088V10.816H63.4048V13.456H61.8368V15.168H63.4048V19.248C63.4048 21.104 64.4928 22.096 66.3648 22.096C66.7328 22.096 67.0848 22.032 67.3888 21.92V20.304C67.1808 20.352 66.9728 20.368 66.7808 20.368C65.8048 20.368 65.3088 19.968 65.3088 18.944V15.168H67.4048ZM77.1204 18.288C77.1364 18.144 77.1524 17.952 77.1524 17.696C77.1524 16.368 76.7844 15.312 76.0484 14.496C75.3124 13.68 74.2884 13.28 72.9924 13.28C71.7604 13.28 70.7364 13.712 69.9204 14.576C69.1044 15.44 68.6884 16.48 68.6884 17.712C68.6884 18.976 69.1204 20.048 69.9684 20.896C70.8324 21.744 71.9044 22.16 73.1684 22.16C74.7044 22.16 76.0964 21.424 76.8164 20.096L75.4404 19.184C74.9764 20.064 74.2084 20.512 73.1364 20.512C72.4804 20.512 71.9044 20.304 71.4084 19.888C70.9124 19.456 70.6564 18.928 70.6404 18.288H77.1204ZM72.9924 14.912C74.2084 14.912 75.1524 15.648 75.2164 16.848H70.7364C70.9124 15.68 71.8244 14.912 72.9924 14.912ZM82.6761 22.064C83.1241 22.064 83.6201 21.952 84.1801 21.712C84.7401 21.472 85.1721 21.12 85.4761 20.624V21.968C85.4761 23.68 84.3721 24.576 82.8841 24.576C81.6841 24.576 80.7881 23.968 80.1961 22.768L78.6121 23.68C79.3961 25.408 80.8361 26.272 82.9161 26.272C84.2601 26.272 85.3321 25.872 86.1481 25.088C86.9641 24.304 87.3801 23.232 87.3801 21.888V13.456H85.5241V14.752C85.2201 14.272 84.7881 13.92 84.2441 13.68C83.7001 13.44 83.2041 13.312 82.7401 13.312C81.4761 13.312 80.4521 13.76 79.6681 14.656C78.9001 15.552 78.5161 16.56 78.5161 17.696C78.5161 18.88 78.9001 19.904 79.6841 20.768C80.4681 21.632 81.4761 22.064 82.6761 22.064ZM85.5081 17.664C85.5081 18.416 85.2681 19.056 84.7881 19.584C84.3241 20.096 83.7161 20.352 82.9641 20.352C82.2121 20.352 81.6041 20.096 81.1241 19.584C80.6601 19.056 80.4201 18.416 80.4201 17.664C80.4201 16.912 80.6601 16.272 81.1241 15.776C81.5881 15.264 82.2121 15.008 82.9641 15.008C83.7161 15.008 84.3401 15.264 84.8041 15.776C85.2681 16.288 85.5081 16.912 85.5081 17.664ZM93.8723 13.28C92.6243 13.28 91.5523 13.712 90.6723 14.56C89.7923 15.408 89.3443 16.464 89.3443 17.712C89.3443 18.96 89.7763 20.016 90.6562 20.864C91.5363 21.712 92.6083 22.144 93.8563 22.144C95.1203 22.144 96.1763 21.712 97.0403 20.864C97.9203 20 98.3523 18.944 98.3523 17.68C98.3523 16.432 97.9203 15.392 97.0403 14.544C96.1603 13.696 95.1043 13.28 93.8723 13.28ZM92.0003 15.792C92.4803 15.264 93.1043 15.008 93.8563 15.008C94.6083 15.008 95.2323 15.264 95.6963 15.792C96.1763 16.32 96.4163 16.96 96.4163 17.712C96.4163 18.464 96.1763 19.104 95.7123 19.632C95.2483 20.16 94.6243 20.416 93.8723 20.416C93.1203 20.416 92.4963 20.144 92.0163 19.616C91.5363 19.072 91.2963 18.432 91.2963 17.68C91.2963 16.928 91.5363 16.304 92.0003 15.792ZM105.015 13.424C104.903 13.392 104.759 13.376 104.551 13.376C103.511 13.376 102.727 13.856 102.199 14.816V13.456H100.343V22H102.247V17.664C102.247 16.176 103.015 15.328 104.471 15.328C104.679 15.328 104.855 15.344 105.015 15.376V13.424ZM107.776 13.456H105.6L109.408 21.04L107.056 26.208H109.088L114.96 13.456H112.896L110.432 19.056L107.776 13.456Z" fill="#D2F34C"/>
<path d="M21.8481 17.4554C22.7646 17.4554 23.4991 18.1971 23.4991 19.1201V21.336C23.4991 22.2525 22.7646 23 21.8481 23H19.651C18.741 23 18 22.2525 18 21.336V19.1201C18 18.1971 18.741 17.4554 19.651 17.4554H21.8481ZM29.3492 17.4554C30.2592 17.4554 31.0003 18.1971 31.0003 19.1201V21.336C31.0003 22.2525 30.2592 23 29.3492 23H27.1522C26.2357 23 25.5012 22.2525 25.5012 21.336V19.1201C25.5012 18.1971 26.2357 17.4554 27.1522 17.4554H29.3492ZM21.8481 10C22.7646 10 23.4991 10.7475 23.4991 11.6647V13.8806C23.4991 14.8036 22.7646 15.5446 21.8481 15.5446H19.651C18.741 15.5446 18 14.8036 18 13.8806V11.6647C18 10.7475 18.741 10 19.651 10H21.8481ZM29.3492 10C30.2592 10 31.0003 10.7475 31.0003 11.6647V13.8806C31.0003 14.8036 30.2592 15.5446 29.3492 15.5446H27.1522C26.2357 15.5446 25.5012 14.8036 25.5012 13.8806V11.6647C25.5012 10.7475 26.2357 10 27.1522 10H29.3492Z" fill="#D2F34C"/>
</svg>
